<?xml version="1.0" standalone="no"?>
<!DOCTYPE svg PUBLIC "-//W3C//DTD SVG 20010904//EN"
 "http://www.w3.org/TR/2001/REC-SVG-20010904/DTD/svg10.dtd">
<svg version="1.0" xmlns="http://www.w3.org/2000/svg"
 width="16.000000pt" height="16.000000pt" viewBox="0 0 16.000000 16.000000"
 preserveAspectRatio="xMidYMid meet">

<g transform="translate(0.000000,16.000000) scale(0.100000,-0.100000)"
fill="#000000" stroke="none">
<path d="M0 140 c0 -17 7 -20 50 -20 32 0 50 -4 50 -12 0 -9 3 -9 12 0 7 7 19
12 27 12 13 0 13 -2 -1 -16 -15 -15 -15 -19 -1 -40 13 -20 13 -24 1 -24 -8 0
-19 5 -26 12 -9 9 -12 9 -12 0 0 -8 -18 -12 -50 -12 -43 0 -50 -3 -50 -20 0
-18 7 -20 80 -20 l80 0 0 80 0 80 -80 0 c-73 0 -80 -2 -80 -20z"/>
<path d="M40 80 c0 -13 5 -20 13 -17 6 2 12 10 12 17 0 7 -6 15 -12 18 -8 2
-13 -5 -13 -18z"/>
</g>
</svg>
